<svg width="448" height="33" viewBox="0 0 448 33" fill="none" xmlns="http://www.w3.org/2000/svg">
<g clip-path="url(#clip0_2_290)">
<path d="M64.8311 30.125C72.563 30.125 78.8311 23.857 78.8311 16.125C78.8311 8.39301 72.563 2.125 64.8311 2.125C57.0991 2.125 50.8311 8.39301 50.8311 16.125C50.8311 23.857 57.0991 30.125 64.8311 30.125Z" fill="white"/>
<path d="M65.3582 0.125C56.7825 0.125 49.8311 7.28834 49.8311 16.125C49.8311 24.9616 56.7825 32.125 65.3582 32.125C73.934 32.125 80.8854 24.9616 80.8854 16.125C80.8854 7.28834 73.934 0.125 65.3582 0.125ZM70.1682 16.273C70.1682 13.6177 68.0791 11.4647 65.5018 11.4647C62.925 11.4647 60.8359 13.6173 60.8359 16.273C60.8359 18.9283 62.925 21.0809 65.5018 21.0809V23.8286C61.4525 23.8286 58.1694 20.446 58.1694 16.273C58.1694 12.1001 61.4521 8.7174 65.5018 8.7174C69.5516 8.7174 72.8344 12.1001 72.8344 16.273H70.1682ZM74.6674 16.273C74.6674 11.0571 70.5641 6.8286 65.5018 6.8286C60.4401 6.8286 56.3367 11.0571 56.3367 16.273C56.3367 21.4888 60.4401 25.717 65.5018 25.717V28.8654C58.7528 28.8654 53.2813 23.2274 53.2813 16.273C53.2813 9.31827 58.7528 3.6806 65.5018 3.6806C72.2512 3.6806 77.7225 9.31827 77.7225 16.273H74.6674Z" fill="#F43E37"/>
</g>
<g clip-path="url(#clip1_2_290)">
<path fill-rule="evenodd" clip-rule="evenodd" d="M178.539 27.8607C178.228 28.6508 177.51 29.7633 176.492 30.5469C175.905 30.9995 175.203 31.4322 174.239 31.7177C173.212 32.0221 171.947 32.125 170.372 32.125H155.972C154.397 32.125 153.132 32.0221 152.104 31.7177C151.141 31.4322 150.439 30.9995 149.851 30.5469C148.834 29.7632 148.116 28.6508 147.805 27.8607C147.178 26.2688 147.172 24.4626 147.172 23.325V8.92497C147.172 7.78743 147.178 5.98122 147.805 4.38929C148.116 3.59918 148.834 2.48669 149.851 1.70306C150.439 1.25046 151.141 0.817826 152.104 0.532328C153.132 0.227881 154.397 0.125 155.972 0.125H170.372C171.947 0.125 173.212 0.227881 174.24 0.532328C175.203 0.817826 175.905 1.25059 176.492 1.70306C177.51 2.48682 178.228 3.59918 178.539 4.38929C179.166 5.98122 179.172 7.78743 179.172 8.92497V23.325C179.172 24.4625 179.166 26.2687 178.539 27.8607Z" fill="url(#paint0_linear_2_290)"/>
<path d="M165.493 18.5182C165.013 18.0116 164.169 17.6868 163.173 17.6868C162.178 17.6868 161.334 18.0116 160.854 18.5182C160.604 18.7826 160.471 19.0536 160.429 19.4397C160.349 20.1874 160.394 20.8311 160.482 21.8603C160.565 22.841 160.723 24.1489 160.93 25.4809C161.077 26.4288 161.197 26.9404 161.306 27.3068C161.482 27.9005 162.142 28.4198 163.173 28.4198C164.205 28.4198 164.865 27.9004 165.041 27.3068C165.15 26.9404 165.27 26.4288 165.417 25.4809C165.623 24.1489 165.782 22.841 165.865 21.8603C165.953 20.831 165.998 20.1872 165.917 19.4397C165.876 19.0538 165.743 18.7826 165.493 18.5182ZM160.557 14.0071C160.557 15.4534 161.73 16.6259 163.176 16.6259C164.622 16.6259 165.795 15.4534 165.795 14.0071C165.795 12.5607 164.622 11.3882 163.176 11.3882C161.73 11.3882 160.557 12.5607 160.557 14.0071ZM163.143 3.67192C157.019 3.68935 152 8.65829 151.924 14.7829C151.862 19.7442 155.029 23.9881 159.452 25.5437C159.559 25.5814 159.668 25.4923 159.651 25.3798C159.593 24.9945 159.539 24.6074 159.488 24.2268C159.471 24.0923 159.385 23.9763 159.261 23.922C155.765 22.3949 153.324 18.8893 153.364 14.8286C153.415 9.49965 157.766 5.15524 163.095 5.11213C168.543 5.06813 172.989 9.48707 172.989 14.9249C172.989 18.9449 170.559 22.4075 167.091 23.9224C166.967 23.9767 166.882 24.093 166.864 24.2275C166.814 24.6079 166.759 24.9949 166.701 25.3798C166.684 25.4923 166.793 25.5814 166.9 25.5438C171.28 24.0031 174.429 19.8252 174.429 14.925C174.429 8.70903 169.363 3.65412 163.143 3.67192ZM162.94 8.83442C166.412 8.7 169.28 11.4856 169.28 14.9283C169.28 16.6792 168.538 18.26 167.352 19.3732C167.252 19.4676 167.198 19.6016 167.205 19.7393C167.229 20.1581 167.22 20.5651 167.193 21.0247C167.185 21.1471 167.322 21.2253 167.424 21.1563C169.412 19.7976 170.72 17.513 170.72 14.9283C170.72 10.6727 167.175 7.22927 162.883 7.39561C158.894 7.55025 155.694 10.8388 155.643 14.8302C155.61 17.4552 156.925 19.7808 158.939 21.1565C159.04 21.2256 159.177 21.1473 159.17 21.0249C159.142 20.5651 159.133 20.1581 159.157 19.7393C159.165 19.6017 159.111 19.4677 159.01 19.3735C157.788 18.2256 157.037 16.5807 157.085 14.7647C157.169 11.5689 159.745 8.95816 162.94 8.83442Z" fill="white"/>
</g>
<g clip-path="url(#clip2_2_290)">
<path d="M16.1713 0.177734C7.36193 0.177734 0.220215 7.31926 0.220215 16.1286C0.220215 24.9383 7.36193 32.0793 16.1713 32.0793C24.9816 32.0793 32.1225 24.9383 32.1225 16.1286C32.1225 7.31983 24.9816 0.178496 16.1711 0.178496L16.1713 0.177734ZM23.4863 23.1834C23.2006 23.652 22.5873 23.8006 22.1187 23.513C18.3736 21.2254 13.6589 20.7073 8.1065 21.9758C7.57146 22.0977 7.03812 21.7625 6.91621 21.2273C6.79374 20.692 7.12765 20.1587 7.66402 20.0368C13.7402 18.648 18.9522 19.2463 23.1568 21.8158C23.6254 22.1034 23.774 22.7149 23.4863 23.1834ZM25.4387 18.8396C25.0787 19.4254 24.313 19.6101 23.7282 19.2501C19.4406 16.6141 12.9048 15.8509 7.83335 17.3903C7.17564 17.589 6.48097 17.2183 6.28135 16.5617C6.08326 15.904 6.45411 15.2107 7.11069 15.0107C12.9037 13.253 20.1054 14.1044 25.0292 17.1301C25.614 17.4901 25.7987 18.2558 25.4387 18.8398V18.8396ZM25.6063 14.317C20.4654 11.2634 11.9835 10.9827 7.07508 12.4724C6.28689 12.7114 5.45336 12.2665 5.21451 11.4783C4.97565 10.6897 5.42021 9.85678 6.20897 9.61716C11.8435 7.90669 21.2101 8.23716 27.129 11.7509C27.8395 12.1716 28.0719 13.0873 27.6509 13.7953C27.2319 14.5042 26.3138 14.7379 25.6071 14.317H25.6063Z" fill="#1ED760"/>
</g>
<g clip-path="url(#clip3_2_290)">
<path d="M212.109 30.125C219.876 30.125 226.172 23.829 226.172 16.0625C226.172 8.296 219.876 2 212.109 2C204.343 2 198.047 8.296 198.047 16.0625C198.047 23.829 204.343 30.125 212.109 30.125Z" fill="white" stroke="#363F46" stroke-width="2.42578" stroke-linecap="round"/>
<path d="M204.475 10.124C204.475 10.124 202.53 12.3178 202.53 16.1508C202.53 19.9838 204.475 22.0892 204.475 22.0892" fill="white"/>
<path d="M204.475 10.124C204.475 10.124 202.53 12.3178 202.53 16.1508C202.53 19.9838 204.475 22.0892 204.475 22.0892" stroke="#FC7E0F" stroke-width="2.42578" stroke-linecap="round"/>
<path d="M219.968 10.124C219.968 10.124 221.912 12.3178 221.912 16.1508C221.912 19.9838 219.968 22.0892 219.968 22.0892" fill="white"/>
<path d="M219.968 10.124C219.968 10.124 221.912 12.3178 221.912 16.1508C221.912 19.9838 219.968 22.0892 219.968 22.0892" stroke="#FC7E0F" stroke-width="2.42578" stroke-linecap="round"/>
<path d="M216.866 12.6875C216.866 12.6875 218.176 14.3188 218.144 16.1429C218.104 18.3366 216.882 19.542 216.882 19.542" fill="white"/>
<path d="M216.866 12.6875C216.866 12.6875 218.176 14.3188 218.144 16.1429C218.104 18.3366 216.882 19.542 216.882 19.542" stroke="#FC7E0F" stroke-width="2.42578" stroke-linecap="round"/>
<path d="M207.513 12.6875C207.513 12.6875 206.203 14.3188 206.235 16.1429C206.275 18.3366 207.497 19.542 207.497 19.542" fill="white"/>
<path d="M207.513 12.6875C207.513 12.6875 206.203 14.3188 206.235 16.1429C206.275 18.3366 207.497 19.542 207.497 19.542" stroke="#FC7E0F" stroke-width="2.42578" stroke-linecap="round"/>
<path d="M212.108 18.2456C213.313 18.2456 214.291 17.2683 214.291 16.0627C214.291 14.8572 213.313 13.8799 212.108 13.8799C210.902 13.8799 209.925 14.8572 209.925 16.0627C209.925 17.2683 210.902 18.2456 212.108 18.2456Z" fill="#363F46"/>
<path d="M212.477 18.1017L210.928 17.6855L208.35 27.3174L209.898 27.7335L212.477 18.1017Z" fill="#363F46"/>
<path d="M211.877 18.089L213.419 17.6797L215.983 27.3184L214.442 27.7277L211.877 18.089Z" fill="#363F46"/>
<path d="M210.444 23.2868L211.017 22.7002L214.987 26.5679L214.414 27.1546L210.444 23.2868Z" fill="#363F46"/>
<path d="M213.807 23.3075L213.288 22.7822L209.353 26.6909L209.871 27.2162L213.807 23.3075Z" fill="#363F46"/>
</g>
<g clip-path="url(#clip4_2_290)">
<path d="M129.831 16.125C129.831 25.0139 122.699 32.125 114.064 32.125C105.43 32.125 98.1721 25.0139 98.1721 16.125C98.1721 7.23612 105.305 0.125 113.939 0.125C122.573 0.125 129.831 7.23612 129.831 16.125Z" fill="url(#paint1_linear_2_290)"/>
<path d="M102.842 17.1941C102.848 17.1412 102.886 17.104 102.933 17.104C102.978 17.104 103.016 17.1412 103.023 17.1938L103.219 18.4708L103.023 19.7261C103.016 19.7787 102.979 19.8153 102.933 19.8153C102.885 19.8153 102.848 19.7784 102.842 19.7256L102.676 18.4708L102.842 17.1941Z" fill="white"/>
<path d="M103.77 16.314C103.818 16.314 103.857 16.3519 103.865 16.4067L104.118 18.471L103.864 20.4901C103.857 20.5448 103.818 20.5828 103.77 20.5828C103.722 20.5828 103.682 20.5437 103.676 20.4896L103.453 18.471L103.676 16.4067C103.683 16.3531 103.722 16.314 103.77 16.314Z" fill="white"/>
<path d="M107.202 14.6748C107.207 14.5784 107.282 14.5024 107.373 14.5024C107.464 14.5024 107.54 14.5784 107.545 14.6748L107.745 18.4726L107.545 20.9272V20.9265C107.54 21.0227 107.464 21.0986 107.373 21.0986C107.282 21.0986 107.207 21.0229 107.202 20.927L107.025 18.4726L107.202 14.6748Z" fill="white"/>
<path d="M105.424 15.955C105.43 15.8791 105.487 15.8223 105.557 15.8223C105.627 15.8223 105.684 15.8791 105.69 15.9545L105.917 18.4714L105.69 20.906C105.684 20.9814 105.627 21.0383 105.557 21.0383C105.487 21.0383 105.429 20.9814 105.424 20.906L105.224 18.4714L105.424 15.955Z" fill="white"/>
<path d="M109.428 20.8868C109.424 21.0055 109.332 21.0982 109.218 21.0982C109.104 21.0982 109.012 21.0052 109.008 20.8876L108.854 18.4734L109.008 13.4177C109.012 13.299 109.104 13.2061 109.219 13.2061C109.332 13.2061 109.424 13.2988 109.429 13.4174L109.602 18.4737L109.428 20.8868Z" fill="white"/>
<path d="M113.284 20.8193C113.281 20.9794 113.153 21.1097 112.997 21.1097C112.841 21.1097 112.712 20.9794 112.709 20.8207C112.709 20.8207 112.601 18.4771 112.601 18.4734L112.709 12.6359C112.712 12.4755 112.841 12.3452 112.997 12.3452C113.153 12.3452 113.281 12.4758 113.284 12.6357L113.405 18.4753L113.284 20.8193Z" fill="white"/>
<path d="M111.342 20.8488C111.338 20.9897 111.229 21.1002 111.093 21.1002C110.957 21.1002 110.847 20.9897 110.844 20.8503L110.713 18.4743L110.844 13.3811C110.847 13.2402 110.956 13.1299 111.093 13.1299C111.229 13.1299 111.338 13.2402 111.342 13.3811L111.49 18.474L111.342 20.8505V20.8488Z" fill="white"/>
<path d="M106.614 20.9264C106.608 21.0127 106.543 21.0782 106.462 21.0782C106.38 21.0782 106.315 21.0127 106.31 20.9261L106.121 18.4715L106.31 16.1373C106.315 16.0505 106.38 15.9849 106.462 15.9849C106.543 15.9849 106.608 16.05 106.614 16.1362L106.828 18.4715L106.614 20.9264Z" fill="white"/>
<path d="M104.773 20.8313C104.767 20.8966 104.719 20.9438 104.66 20.9438C104.6 20.9438 104.552 20.8963 104.546 20.8309L104.335 18.4711L104.546 16.0219C104.552 15.9567 104.6 15.9092 104.66 15.9092C104.719 15.9092 104.767 15.9565 104.774 16.0219L105.014 18.4711L104.773 20.8313Z" fill="white"/>
<path d="M111.773 13.5676C111.776 13.4153 111.894 13.2964 112.041 13.2964C112.188 13.2964 112.306 13.4153 112.309 13.5671L112.443 18.4749L112.309 20.8361V20.8341C112.306 20.9863 112.188 21.105 112.041 21.105C111.893 21.105 111.776 20.9861 111.773 20.8358L111.653 18.4747L111.773 13.5676Z" fill="white"/>
<path d="M108.483 20.9111C108.478 21.0186 108.394 21.103 108.293 21.103C108.19 21.103 108.106 21.0186 108.102 20.9121L107.936 18.4731L108.102 13.8065C108.106 13.699 108.19 13.6147 108.293 13.6147C108.394 13.6147 108.478 13.6987 108.483 13.8065L108.67 18.4731L108.483 20.9111Z" fill="white"/>
<path d="M110.382 20.8729V20.8726C110.377 21.0015 110.277 21.1028 110.152 21.1028C110.028 21.1028 109.927 21.0011 109.923 20.8727L109.78 18.4736L109.923 13.2472C109.926 13.1172 110.027 13.0156 110.152 13.0156C110.277 13.0156 110.378 13.1174 110.382 13.2472L110.542 18.4739L110.382 20.8716V20.8726C110.382 20.8723 110.382 20.8721 110.382 20.8719V20.8729Z" fill="white"/>
<path d="M121.463 15.6806C121.795 15.5395 122.159 15.4612 122.541 15.4612C124.08 15.4612 125.327 16.7272 125.327 18.2888C125.327 19.8503 124.079 21.1162 122.541 21.1162C122.491 21.1162 114.825 21.1123 114.818 21.1115C114.652 21.0944 114.52 20.9503 114.517 20.7773V11.8042C114.519 11.6393 114.575 11.5543 114.786 11.4717C115.327 11.2594 115.939 11.1338 116.568 11.1338C119.136 11.1338 121.242 13.1326 121.463 15.6806Z" fill="white"/>
<path d="M113.641 12.107C113.643 11.9358 113.78 11.7964 113.948 11.7964C114.115 11.7964 114.252 11.9358 114.254 12.1066L114.391 18.476L114.254 20.7878V20.785C114.252 20.9564 114.115 21.0955 113.948 21.0955C113.78 21.0955 113.643 20.9564 113.641 20.7875L113.515 18.476L113.641 12.107Z" fill="white"/>
</g>
<defs>
<linearGradient id="paint0_linear_2_290" x1="163.172" y1="0.125" x2="163.172" y2="32.125" gradientUnits="userSpaceOnUse">
<stop stop-color="#F452FF"/>
<stop offset="1" stop-color="#832BC1"/>
</linearGradient>
<linearGradient id="paint1_linear_2_290" x1="114.002" y1="0.125" x2="114.002" y2="32.125" gradientUnits="userSpaceOnUse">
<stop stop-color="#FF7602"/>
<stop offset="1" stop-color="#FF3502"/>
</linearGradient>
<clipPath id="clip0_2_290">
<rect width="32" height="32" fill="white" transform="translate(49.1719 0.125)"/>
</clipPath>
<clipPath id="clip1_2_290">
<rect width="32" height="32" fill="white" transform="translate(147.172 0.125)"/>
</clipPath>
<clipPath id="clip2_2_290">
<rect width="32" height="32" fill="white" transform="translate(0.171875 0.125)"/>
</clipPath>
<clipPath id="clip3_2_290">
<rect width="32" height="32" fill="white" transform="translate(196.172 0.125)"/>
</clipPath>
<clipPath id="clip4_2_290">
<rect width="32" height="32" fill="white" transform="translate(98.1719 0.125)"/>
</clipPath>
</defs>
</svg>
